<svg width="131" height="119" viewBox="0 0 131 119" fill="none" xmlns="http://www.w3.org/2000/svg">
<g clip-path="url(#clip0)">
<path d="M91.5849 24.7529C94.5963 29.0132 96.2031 34.0196 96.2031 39.1398C96.2031 53.4663 83.8937 65.3105 68.7085 65.3105H62.2915C47.1063 65.3105 34.7969 53.4663 34.7969 39.1398C34.7969 30.8726 37.3913 22.789 42.2526 15.9093L45.0312 11.979V19.6327C45.0312 24.0045 46.8709 28.1974 50.1484 31.2886V26.4612C50.1484 13.1295 61.6033 2.32422 75.7344 2.32422L72.1677 7.37242C68.4859 12.5833 69.9775 19.6211 75.499 23.0958C78.8431 25.1969 80.8516 28.7366 80.8516 32.5274V36.1137L81.3914 35.0957C84.4029 29.4176 85.9688 23.1539 85.9688 16.8064L91.5849 24.7529Z" fill="#FFDA8F"/>
<path d="M54.4213 79.2535C50.2175 79.2187 46.8223 76.1112 46.8223 72.2832V65.3105H85.2012V72.2832C85.2012 76.1344 81.765 79.2559 77.5254 79.2559H54.498C54.4725 79.2559 54.4469 79.2559 54.4213 79.2535Z" fill="#FF9171"/>
<path d="M77.4205 79.2559L69.3379 116.676H61.6621L54.4213 79.2535C54.4469 79.2559 54.4724 79.2559 54.498 79.2559H77.4205Z" fill="#C1B0B5"/>
<path d="M45.7517 9.7487C44.661 9.45818 43.4917 9.85515 42.8784 10.723L40.0996 14.6535C34.9568 21.9318 32.2383 30.3989 32.2383 39.1398C32.2383 49.1786 37.7423 58.0211 46.0391 63.0981C45.0092 63.3989 44.2637 64.2753 44.2637 65.3105V72.2832C44.2637 76.685 47.6794 80.4026 52.2283 81.3458L59.1422 117.078C59.3571 118.19 60.4199 119 61.6621 119H69.3379C70.5609 119 71.6132 118.214 71.8486 117.124L73.699 108.557C73.971 107.297 73.0676 106.076 71.6808 105.829C70.2943 105.581 68.9495 106.402 68.6775 107.662L67.2324 114.352H63.81L57.4691 81.5801H74.3105L73.1116 87.1329C72.8396 88.3926 73.743 89.6142 75.1298 89.861C76.5193 90.1093 77.8616 89.2842 78.1331 88.0279L79.5659 81.3939C84.2348 80.5323 87.7598 76.7748 87.7598 72.2832V65.3105C87.7598 64.0271 86.6143 62.9863 85.2012 62.9863H85.1403C93.3365 57.8919 98.7617 49.1061 98.7617 39.1398C98.7617 33.5559 97.0244 28.1465 93.7379 23.4972L88.1218 15.5506C87.5083 14.6826 86.3382 14.2853 85.2485 14.5761C84.1588 14.8666 83.4102 15.7747 83.4102 16.8064C83.4102 20.1489 82.9417 23.493 82.0334 26.7243C80.927 24.5131 79.1903 22.5891 76.9561 21.1855C72.5638 18.4211 71.3817 12.7879 74.321 8.62796L77.8877 3.57976C78.3933 2.8646 78.4283 1.95583 77.9798 1.20999C77.5313 0.464146 76.6701 0 75.7344 0C61.6457 0 49.9417 9.7824 47.904 22.5024C47.6968 21.562 47.5898 20.6005 47.5898 19.6327V11.979C47.5898 10.9475 46.8415 10.0392 45.7517 9.7487ZM82.6426 67.6348V72.2832C82.6426 74.7095 80.585 76.7499 77.9721 76.9565C77.9504 76.9523 77.9294 76.946 77.9074 76.9423C77.8818 76.9379 54.0257 76.9286 53.9996 76.9326C53.9751 76.9363 53.9518 76.9423 53.9275 76.9465C51.3771 76.689 49.3809 74.6632 49.3809 72.2832V67.6348H82.6426ZM48.3055 32.9012C49.0296 33.5838 50.1372 33.7988 51.1054 33.4443C52.0733 33.0899 52.707 32.2369 52.707 31.2889V26.4612C52.707 16.0787 60.4046 7.36731 70.6776 5.17836L70.0144 6.11711C65.6036 12.3593 67.4105 20.8331 74.0434 25.0074C76.7043 26.6792 78.293 29.4904 78.293 32.5274V36.1137C78.293 37.198 79.1184 38.1383 80.282 38.3796C81.4446 38.6208 82.6382 38.0993 83.1566 37.1224C83.4516 36.4579 86.5626 31.4874 87.9079 23.8525L89.4318 26.0087C92.1879 29.9076 93.6445 34.4482 93.6445 39.1398C93.6445 52.2886 82.4584 62.9863 68.7085 62.9863H62.2915C48.5416 62.9863 37.3555 52.2889 37.3555 39.1398C37.3555 32.4665 39.1181 25.9738 42.4806 20.167C42.6223 24.9758 44.6784 29.4799 48.3055 32.9012Z" fill="black"/>
<path d="M73.4316 100.174C74.8447 100.174 75.9902 99.133 75.9902 97.8494C75.9902 96.5657 74.8447 95.5251 73.4316 95.5251C72.0186 95.5251 70.873 96.5657 70.873 97.8494C70.873 99.133 72.0186 100.174 73.4316 100.174Z" fill="black"/>
</g>
<defs>
<clipPath id="clip0">
<rect width="131" height="119" fill="white"/>
</clipPath>
</defs>
</svg>
