<svg id="Capa_1" enable-background="new 0 0 512 512" height="512" viewBox="0 0 512 512" width="512" xmlns="http://www.w3.org/2000/svg"><g><g><path d="m357.95 106.5c11.77 18.33 18.05 39.87 18.05 61.9 0 61.64-48.11 112.6-107.46 112.6h-25.08c-59.35 0-107.46-50.96-107.46-112.6 0-35.57 10.14-70.35 29.14-99.95l10.86-16.91v32.93c0 18.81 7.19 36.85 20 50.15v-20.77c0-57.36 44.77-103.85 100-103.85l-13.94 21.72c-14.39 22.42-8.56 52.7 13.02 67.65 13.07 9.04 20.92 24.27 20.92 40.58v15.43l2.11-4.38c11.77-24.43 17.89-51.38 17.89-78.69z" fill="#ffda8f"/><path d="m212.7 340.99c-16.43-.15-29.7-13.52-29.7-29.99v-30h150v30c0 16.57-13.43 30-30 30h-90c-.1 0-.2 0-.3-.01z" fill="#ff9171"/><path d="m302.59 341-31.59 161h-30l-28.3-161.01c.1.01.2.01.3.01z" fill="#c1b0b5"/></g><g><path d="m178.816 41.944c-4.263-1.25-8.833.458-11.23 4.192l-10.861 16.911c-20.1 31.315-30.725 67.745-30.725 105.353 0 43.192 21.512 81.237 53.939 103.081-4.025 1.294-6.939 5.065-6.939 9.519v30c0 18.939 13.35 34.934 31.129 38.992l27.022 153.74c.84 4.781 4.994 8.269 9.849 8.269h30c4.78 0 8.893-3.384 9.813-8.074l7.232-36.858c1.063-5.42-2.468-10.676-7.888-11.738-5.419-1.065-10.675 2.468-11.738 7.887l-5.648 28.782h-13.376l-24.783-141h65.823l-4.686 23.891c-1.063 5.42 2.468 10.676 7.888 11.738 5.431 1.068 10.677-2.482 11.738-7.887l5.6-28.543c18.248-3.707 32.025-19.874 32.025-39.199v-30c0-5.522-4.477-10-10-10h-.238c32.034-21.919 53.238-59.72 53.238-102.6 0-24.025-6.79-47.299-19.635-67.303l-21.95-34.19c-2.398-3.735-6.971-5.444-11.23-4.193-4.259 1.25-7.185 5.157-7.185 9.596 0 14.381-1.831 28.769-5.381 42.672-4.324-9.514-11.112-17.792-19.844-23.831-17.167-11.894-21.787-36.131-10.299-54.029l13.94-21.72c1.976-3.077 2.113-6.987.36-10.196s-5.119-5.206-8.776-5.206c-55.064 0-100.808 42.089-108.772 96.817-.81-4.046-1.228-8.183-1.228-12.347v-32.93c0-4.438-2.925-8.346-7.184-9.596zm144.184 249.056v20c0 10.439-8.042 19.218-18.254 20.107-.085-.018-.167-.045-.253-.061-.1-.019-93.339-.059-93.441-.042-.096.016-.187.042-.282.06-9.968-1.108-17.77-9.824-17.77-20.064v-20zm-134.203-149.442c2.83 2.937 7.159 3.862 10.943 2.337 3.783-1.525 6.26-5.195 6.26-9.274v-20.771c0-44.671 30.085-82.152 70.236-91.57l-2.592 4.039c-17.239 26.857-10.177 63.316 15.747 81.276 10.4 7.193 16.609 19.288 16.609 32.355v15.43c0 4.665 3.226 8.711 7.774 9.749 4.544 1.038 9.209-1.206 11.235-5.409 1.153-2.859 13.312-24.245 18.57-57.094l5.956 9.277c10.772 16.775 16.465 36.311 16.465 56.497 0 56.573-43.72 102.6-97.46 102.6h-25.08c-53.74 0-97.46-46.026-97.46-102.6 0-28.712 6.889-56.647 20.031-81.631.554 20.69 8.59 40.069 22.766 54.789z"/><circle cx="287" cy="420.999" r="10"/></g></g></svg>