<?xml version="1.0" encoding="UTF-8" standalone="no"?>
<svg
   xmlns:dc="http://purl.org/dc/elements/1.1/"
   xmlns:cc="http://creativecommons.org/ns#"
   xmlns:rdf="http://www.w3.org/1999/02/22-rdf-syntax-ns#"
   xmlns:svg="http://www.w3.org/2000/svg"
   xmlns="http://www.w3.org/2000/svg"
   xmlns:sodipodi="http://sodipodi.sourceforge.net/DTD/sodipodi-0.dtd"
   xmlns:inkscape="http://www.inkscape.org/namespaces/inkscape"
   width="500"
   height="150"
   version="1.1"
   id="svg2"
   sodipodi:docname="curve.svg"
   inkscape:version="1.0.1 (3bc2e813f5, 2020-09-07)">
  <metadata
     id="metadata8">
    <rdf:RDF>
      <cc:Work
         rdf:about="">
        <dc:format>image/svg+xml</dc:format>
        <dc:type
           rdf:resource="http://purl.org/dc/dcmitype/StillImage" />
      </cc:Work>
    </rdf:RDF>
  </metadata>
  <defs
     id="defs6" />
  <sodipodi:namedview
     pagecolor="#ffffff"
     bordercolor="#666666"
     borderopacity="1"
     objecttolerance="10"
     gridtolerance="10"
     guidetolerance="10"
     inkscape:pageopacity="0"
     inkscape:pageshadow="2"
     inkscape:window-width="1920"
     inkscape:window-height="1001"
     id="namedview4"
     showgrid="false"
     inkscape:zoom="1.126"
     inkscape:cx="92.992121"
     inkscape:cy="92.417001"
     inkscape:window-x="-9"
     inkscape:window-y="-9"
     inkscape:window-maximized="1"
     inkscape:current-layer="svg2" />
  <path
     style="opacity:1;fill:#d07171;fill-opacity:1;stroke:#d07871;stroke-width:2.3916px;stroke-linecap:butt;stroke-linejoin:miter;stroke-opacity:1"
     d="M 24.791242,27.632795 C 116.8898,27.243532 477.32426,27.472707 477.32426,27.472707 c -0.10387,-0.23527 21.15901,-1.643454 21.88524,24.362755 0.65783,23.555612 -0.2762,28.959717 -0.2762,28.959717 0,0 1.63586,18.342353 -18.59524,24.569761 -19.76749,6.0847 -172.40208,-42.483435 -261.89714,10.03218 -1.78491,1.04739 -6.53871,3.26416 -8.2694,4.39228 -9.36928,4.91178 -34.08561,16.01814 -44.6473,19.12948 C 88.797094,156.91772 47.123703,142.00058 20.157461,136.20663 -2.3345955,131.28098 0.92215172,121.28861 0.75219901,109.7638 0.3562093,83.40497 0.46915331,65.998064 0.87140981,47.837046 -0.23051999,23.925389 13.564435,29.064709 24.791249,27.632795 Z"
     id="path20"
     sodipodi:nodetypes="ccscssccccccc" />
  <path
     style="opacity:1;fill:#b31d1f;fill-opacity:1;stroke:#b31d10;stroke-width:2.52643px;stroke-linecap:butt;stroke-linejoin:miter;stroke-opacity:1"
     d="M 25.646259,1.4822298 C 117.76442,1.0479395 478.2755,1.3036126 478.2755,1.3036126 c -0.10388,-0.2624781 21.16351,-1.83353842 21.8899,27.1807424 0.65797,26.280233 -0.27625,32.309431 -0.27625,32.309431 0,0 1.6362,20.463958 -18.5992,27.411676 -19.7717,6.788513 -172.43874,-47.397388 -261.95283,11.192585 -1.78529,1.168533 -6.5401,3.641723 -8.27115,4.900323 -9.37128,5.47991 -34.09287,17.87093 -44.6568,21.34215 C 89.66572,145.72124 47.983469,129.07868 21.011494,122.61456 -1.4853482,117.11917 1.7720966,105.97099 1.602105,93.113149 1.2060327,63.705435 1.3189967,44.285123 1.7213409,24.023449 0.61917498,-2.6540119 14.417065,3.0797647 25.646267,1.4822298 Z"
     id="path20-3"
     sodipodi:nodetypes="ccscssccccccc" />
</svg>
