<svg id="Layer_5" enable-background="new 0 0 64 64" height="512" viewBox="0 0 64 64" width="512" xmlns="http://www.w3.org/2000/svg"><g><g><g><path d="m17 33c-8.822 0-16-7.178-16-16s7.178-16 16-16 16 7.178 16 16-7.178 16-16 16zm0-27c-6.065 0-11 4.935-11 11s4.935 11 11 11 11-4.934 11-11-4.934-11-11-11z" fill="#f0bc5e"/></g></g><g><path d="m17 29c6.279 0 11.438-4.851 11.949-11h17.432l3 6h13.236l-3.5-7 3.5-7h-13.235l-3 6h-17.433c-.511-6.149-5.67-11-11.949-11-6.617 0-12 5.383-12 12s5.383 12 12 12zm33.618-17h8.764l-2.5 5 2.5 5h-8.764l-2-4h5.382v-2h-5.382zm-33.618-5c5.177 0 9.446 3.954 9.949 9h-4.04c-.478-2.833-2.942-5-5.91-5-3.309 0-6 2.691-6 6s2.691 6 6 6c2.967 0 5.431-2.167 5.91-5h4.04c-.503 5.046-4.773 9-9.949 9-5.514 0-10-4.486-10-10s4.486-10 10-10zm3.858 11c-.447 1.72-2 3-3.858 3-2.206 0-4-1.794-4-4s1.794-4 4-4c1.858 0 3.411 1.28 3.858 3h-3.858v2z"/><path d="m13 57h2v2h-2z"/><path d="m17 57h2v2h-2z"/><path d="m9 57h2v2h-2z"/><path d="m5 57h2v2h-2z"/><path d="m37 53h2v2h-2z"/><path d="m49 53h2v2h-2z"/><path d="m45 53h2v2h-2z"/><path d="m41 53h2v2h-2z"/><path d="m61 35h-18c-1.103 0-2 .897-2 2v2h-22c-.551 0-1-.449-1-1v-5.051c-.332.021-.662.051-1 .051s-.668-.03-1-.051v5.051c0 1.654 1.346 3 3 3h8v6h-13c-1.654 0-3 1.346-3 3v3h-8c-1.103 0-2 .897-2 2v6c0 1.103.897 2 2 2h18c1.103 0 2-.897 2-2v-6c0-1.103-.897-2-2-2h-8v-3c0-.551.449-1 1-1h13v3c0 1.654 1.346 3 3 3h3v2c0 1.103.897 2 2 2h18c1.103 0 2-.897 2-2v-6c0-1.103-.897-2-2-2h-18c-1.103 0-2 .897-2 2v2h-3c-.551 0-1-.449-1-1v-11h12v2c0 1.103.897 2 2 2h18c1.103 0 2-.897 2-2v-6c0-1.103-.897-2-2-2zm-39.999 26h-18.001v-6h18zm13.999-10h18l.001 6h-18.001zm8-8v-6h18l.001 6z"/><path d="m45 39h2v2h-2z"/><path d="m57 39h2v2h-2z"/><path d="m53 39h2v2h-2z"/><path d="m49 39h2v2h-2z"/></g></g></svg>